<?xml version="1.0" standalone="no"?>
<!DOCTYPE svg PUBLIC "-//W3C//DTD SVG 20010904//EN"
 "http://www.w3.org/TR/2001/REC-SVG-20010904/DTD/svg10.dtd">
<svg version="1.0" xmlns="http://www.w3.org/2000/svg"
 width="1500.000000pt" height="1500.000000pt" viewBox="0 0 1500.000000 1500.000000"
 preserveAspectRatio="xMidYMid meet">

<g transform="translate(0.000000,1500.000000) scale(0.100000,-0.100000)"
fill="#000000" stroke="none">
<path d="M2800 7700 l0 -1640 520 0 520 0 0 590 0 590 359 0 358 0 140 358
139 357 -498 3 -498 2 0 335 0 335 608 0 609 0 126 338 c69 185 128 345 132
355 7 16 -57 17 -1254 17 l-1261 0 0 -1640z"/>
<path d="M5640 7700 l0 -1640 510 0 510 0 0 1640 0 1640 -510 0 -510 0 0
-1640z"/>
<path d="M7370 7700 l0 -1640 515 0 515 0 0 590 0 590 362 2 363 3 137 350
c76 193 138 353 138 357 0 4 -224 9 -497 10 l-498 3 0 330 0 330 610 3 610 2
115 308 c63 169 122 328 132 355 l18 47 -1260 0 -1260 0 0 -1640z"/>
<path d="M10551 9318 c-7 -21 -1036 -2883 -1132 -3151 l-38 -107 496 2 497 3
43 150 c24 83 52 180 63 218 l21 67 576 -2 577 -3 65 -217 66 -218 511 0 511
0 -78 218 c-43 119 -309 857 -591 1640 l-513 1422 -533 0 -532 0 -9 -22z m734
-1524 c108 -361 194 -658 192 -660 -2 -2 -182 -3 -399 -2 l-395 3 196 678
c134 465 198 671 203 658 4 -11 95 -316 203 -677z"/>
</g>
</svg>
